# xmcd CD database file
#
# Track frame offsets:
#	150
#	20292
#	42180
#	61555
#	84005
#	102895
#	117437
#	135867
#	154052
#
# Disc length: 2262 seconds
#
# Revision: 0
# Processed by: cddbd v1.5.1PL0 Copyright (c) Steve Scherf et al.
# Submitted via: CDex 1.51
#
DISCID=5908d409
DTITLE=Miriam Makeba - A Promise
DYEAR=1900
DGENRE=Jazz
TTITLE0=A Promise
TTITLE1=Hauteng
TTITLE2=Mama (Mama Been All Over)
TTITLE3=Samba
TTITLE4=We've Got To Make It (The Question)
TTITLE5=La Guinee Guine
TTITLE6=Moulouyame
TTITLE7=Quite It
TTITLE8=Mama Ndiyalila
EXTD=
EXTT0=
EXTT1=
EXTT2=
EXTT3=
EXTT4=
EXTT5=
EXTT6=
EXTT7=
EXTT8=
PLAYORDER=
